<?xml version="1.0" standalone="no"?>
<!DOCTYPE svg PUBLIC "-//W3C//DTD SVG 20010904//EN"
 "http://www.w3.org/TR/2001/REC-SVG-20010904/DTD/svg10.dtd">
<svg version="1.0" xmlns="http://www.w3.org/2000/svg"
 width="2048.000000pt" height="2048.000000pt" viewBox="0 0 2048.000000 2048.000000"
 preserveAspectRatio="xMidYMid meet">

<g transform="translate(0.000000,2048.000000) scale(0.100000,-0.100000)"
fill="#000000" stroke="none">
<path d="M9635 20460 c-522 -39 -858 -85 -1265 -172 -619 -132 -1240 -335
-1800 -590 -41 -19 -100 -45 -130 -58 -93 -41 -438 -218 -580 -297 -602 -337
-1210 -776 -1685 -1217 -260 -241 -447 -431 -661 -671 -299 -335 -614 -761
-904 -1220 -331 -524 -704 -1326 -903 -1940 -195 -601 -304 -1081 -372 -1635
-62 -514 -69 -628 -70 -1170 0 -525 2 -571 51 -1010 33 -300 58 -465 105 -705
158 -795 409 -1533 761 -2242 237 -478 396 -742 787 -1304 71 -101 384 -495
480 -603 33 -38 61 -77 61 -87 0 -10 -12 -49 -26 -86 -87 -230 -253 -672 -259
-693 -4 -14 -13 -38 -21 -55 -18 -41 -126 -323 -179 -470 -24 -66 -73 -199
-110 -295 -37 -96 -121 -319 -186 -495 -66 -176 -151 -401 -189 -500 -109
-286 -178 -469 -232 -620 -27 -77 -56 -153 -64 -170 -7 -16 -41 -104 -75 -195
-164 -442 -220 -589 -288 -765 -27 -71 -86 -229 -131 -350 -92 -252 -139 -374
-188 -494 -30 -74 -34 -93 -30 -152 3 -58 8 -74 34 -106 44 -55 117 -92 180
-93 52 0 127 35 384 180 47 26 218 121 380 210 162 90 374 206 470 260 96 54
202 112 235 130 33 18 121 66 195 108 74 41 230 126 345 189 116 64 338 186
495 273 157 86 382 210 500 275 290 159 393 216 535 295 66 37 190 106 275
153 240 131 516 284 730 402 239 133 318 177 485 268 72 39 206 112 298 164
92 51 172 93 177 93 5 0 82 -25 172 -55 403 -137 781 -235 1193 -309 705 -127
1107 -162 1777 -153 598 8 917 39 1512 148 249 45 278 52 551 120 289 72 326
83 580 166 432 141 771 280 1180 481 234 116 312 158 580 311 327 186 775 491
1043 710 51 42 119 96 151 121 60 48 155 128 286 243 233 205 722 718 971
1017 417 503 870 1209 1140 1775 461 970 718 1861 843 2930 81 688 72 1456
-25 2165 -94 694 -241 1284 -481 1930 -112 302 -203 513 -363 845 -130 269
-325 624 -445 810 -329 510 -489 728 -809 1104 -211 247 -589 635 -786 807
-25 21 -49 44 -55 50 -39 43 -283 244 -523 432 -149 115 -481 344 -672 462
-30 18 -84 52 -120 75 -185 119 -552 314 -867 461 -111 52 -205 94 -208 94 -3
0 -27 9 -52 21 -25 11 -107 45 -182 75 -75 30 -145 59 -156 64 -152 66 -774
259 -1052 325 -60 14 -135 32 -168 40 -308 74 -692 135 -1055 169 -336 32
-475 38 -895 41 -347 3 -478 0 -680 -15z m1080 -410 c917 -47 1860 -253 2705
-590 616 -245 1090 -493 1610 -840 219 -147 474 -331 586 -425 38 -31 118 -98
179 -148 325 -272 745 -688 992 -982 172 -207 199 -240 318 -399 387 -515 698
-1037 965 -1620 431 -940 674 -1893 762 -2981 19 -241 16 -967 -5 -1225 -32
-376 -72 -653 -158 -1084 -83 -417 -158 -683 -332 -1181 -65 -186 -185 -473
-302 -720 -31 -66 -64 -136 -73 -155 -28 -63 -223 -422 -295 -545 -103 -176
-335 -525 -480 -723 -288 -393 -487 -623 -867 -1003 -460 -461 -855 -782
-1407 -1142 -773 -505 -1623 -878 -2563 -1126 -152 -40 -564 -123 -770 -155
-849 -131 -1795 -129 -2630 5 -527 85 -899 176 -1407 344 -274 91 -333 101
-405 71 -18 -8 -96 -49 -173 -91 -77 -43 -259 -142 -405 -222 -146 -80 -364
-200 -485 -268 -121 -67 -256 -141 -300 -165 -127 -68 -185 -100 -265 -145
-41 -24 -208 -116 -370 -205 -482 -265 -960 -530 -1040 -575 -41 -23 -111 -62
-155 -85 -44 -24 -129 -71 -190 -105 -60 -34 -189 -105 -285 -158 -96 -52
-249 -136 -340 -187 -152 -85 -465 -257 -819 -451 -79 -44 -146 -79 -149 -79
-7 0 4 39 32 110 95 246 119 310 131 345 7 22 31 87 53 145 45 118 113 298
226 600 42 113 91 241 108 285 77 203 140 373 150 405 5 19 14 40 18 45 4 6
31 73 59 150 29 77 73 194 98 260 25 66 65 176 89 245 24 69 48 134 54 145 12
26 371 978 580 1540 21 55 77 201 125 325 99 256 110 310 77 381 -11 24 -73
105 -137 179 -674 776 -1173 1594 -1542 2525 -306 772 -496 1589 -568 2440
-43 504 -27 1166 41 1720 170 1391 711 2777 1537 3939 157 221 414 543 582
731 152 170 486 506 640 645 348 312 590 500 1020 789 676 455 1446 815 2270
1061 175 52 619 163 780 194 396 77 881 138 1230 155 248 12 679 12 900 1z"/>
<path d="M7686 16389 l-318 -321 190 -192 c104 -105 296 -299 426 -431 131
-132 422 -427 649 -655 227 -229 427 -432 446 -452 l34 -37 -17 -35 c-71 -150
-96 -481 -51 -691 78 -370 317 -676 663 -850 l72 -36 0 -2067 0 -2068 -65 -28
c-152 -66 -317 -199 -444 -360 -77 -97 -169 -284 -204 -416 -116 -426 -1 -870
305 -1180 466 -472 1193 -495 1684 -53 59 54 166 177 201 232 310 482 251
1112 -142 1520 -98 102 -219 191 -334 247 l-79 39 -7 80 c-9 113 -2 4022 8
4031 7 7 564 -547 1346 -1338 l195 -197 -27 -78 c-155 -449 -45 -928 287
-1259 187 -186 416 -304 666 -344 95 -15 324 -12 421 5 233 41 461 160 626
327 240 242 363 528 366 853 2 147 -12 237 -55 375 -80 252 -232 465 -442 622
-100 75 -272 158 -396 192 -227 62 -507 51 -725 -28 l-64 -23 -713 721 c-392
397 -740 749 -772 783 l-58 62 27 68 c66 163 92 426 61 608 -89 522 -451 908
-957 1016 -206 45 -466 27 -663 -44 l-69 -25 -843 847 c-464 467 -853 860
-865 874 -11 15 -26 27 -32 27 -7 0 -156 -145 -331 -321z"/>
</g>
</svg>
